<svg width="192" height="192" viewBox="0 0 192 192" fill="none" xmlns="http://www.w3.org/2000/svg">
<rect width="192" height="192" rx="20" fill="#115479"/>
<path d="M89.6016 129.868L89.0945 130.73L89.1139 130.741L89.1337 130.752L89.6016 129.868ZM89.2273 112.342H90.2273V111.342H89.2273V112.342ZM89.2273 109.524V110.524H90.2273V109.524H89.2273ZM90.7464 101.576L91.3483 102.375L91.3501 102.373L90.7464 101.576ZM97.0213 102.259L96.0485 102.027L96.0443 102.045L96.0407 102.062L97.0213 102.259ZM96.7351 103.051L95.8635 102.561L95.8516 102.582L95.8407 102.604L96.7351 103.051ZM93.4986 103.425L93.1047 102.506L93.0964 102.51L93.0882 102.514L93.4986 103.425ZM92.772 104.262L91.8595 103.853L91.8536 103.866L91.848 103.88L92.772 104.262ZM92.5078 109.524H91.5078V110.524H92.5078V109.524ZM96.5149 109.81L95.6633 110.334L95.6873 110.374L95.7149 110.41L96.5149 109.81ZM96.5149 112.078L95.6927 111.509L95.6877 111.516L95.6829 111.523L96.5149 112.078ZM92.5078 112.342V111.342H91.5078V112.342H92.5078ZM92.1335 129.868L92.6014 130.752L92.6212 130.741L92.6405 130.73L92.1335 129.868ZM90.7905 129.066C90.5562 129.066 90.379 129.052 90.2503 129.03C90.1172 129.008 90.0684 128.984 90.0695 128.984L89.1337 130.752C89.6073 131.002 90.2087 131.066 90.7905 131.066V129.066ZM90.1086 129.006C90.113 129.009 90.1549 129.036 90.1909 129.1C90.2265 129.162 90.2273 129.209 90.2273 129.207H88.2273C88.2273 129.849 88.5343 130.4 89.0945 130.73L90.1086 129.006ZM90.2273 129.207V112.342H88.2273V129.207H90.2273ZM89.2273 111.342H87.6641V113.342H89.2273V111.342ZM87.6641 111.342C87.6549 111.342 87.6954 111.341 87.7578 111.372C87.8248 111.405 87.8719 111.452 87.8968 111.489C87.9173 111.519 87.9089 111.521 87.8963 111.465C87.8837 111.41 87.8714 111.316 87.8714 111.175H85.8714C85.8714 111.646 85.9457 112.176 86.2424 112.612C86.586 113.118 87.1165 113.342 87.6641 113.342V111.342ZM87.8714 111.175V110.691H85.8714V111.175H87.8714ZM87.8714 110.691C87.8714 110.55 87.8837 110.457 87.8963 110.401C87.9089 110.346 87.9173 110.348 87.8968 110.378C87.8719 110.414 87.8248 110.462 87.7578 110.495C87.6954 110.525 87.6549 110.524 87.6641 110.524V108.524C87.1165 108.524 86.586 108.748 86.2424 109.254C85.9457 109.691 85.8714 110.22 85.8714 110.691H87.8714ZM87.6641 110.524H89.2273V108.524H87.6641V110.524ZM90.2273 109.524V105.803H88.2273V109.524H90.2273ZM90.2273 105.803C90.2273 103.867 90.7092 102.856 91.3483 102.375L90.1446 100.777C88.7581 101.822 88.2273 103.63 88.2273 105.803H90.2273ZM91.3501 102.373C92.1992 101.73 93.1602 101.409 94.2692 101.409V99.4091C92.7361 99.4091 91.3486 99.8657 90.1428 100.779L91.3501 102.373ZM94.2692 101.409C95.1841 101.409 95.7401 101.508 96.0322 101.63C96.1685 101.686 96.1891 101.724 96.1726 101.704C96.1434 101.667 96.1314 101.618 96.1314 101.598H98.1314C98.1314 101.182 98.0002 100.786 97.7324 100.452C97.4774 100.134 97.1402 99.9244 96.7994 99.7828C96.1375 99.5079 95.2624 99.4091 94.2692 99.4091V101.409ZM96.1314 101.598C96.1314 101.584 96.132 101.61 96.1175 101.698C96.1041 101.778 96.0819 101.887 96.0485 102.027L97.9941 102.49C98.0675 102.182 98.1314 101.86 98.1314 101.598H96.1314ZM96.0407 102.062C96.0004 102.264 95.9386 102.427 95.8635 102.561L97.6067 103.541C97.7957 103.205 97.9248 102.84 98.0019 102.455L96.0407 102.062ZM95.8407 102.604C95.8182 102.649 95.8285 102.609 95.8983 102.55C95.9841 102.478 96.1313 102.403 96.3168 102.403V104.403C97.0584 104.403 97.457 103.843 97.6295 103.498L95.8407 102.604ZM96.3168 102.403C96.3445 102.403 96.3557 102.405 96.3403 102.404C96.328 102.402 96.3057 102.399 96.2711 102.394C96.2015 102.383 96.1033 102.364 95.9723 102.337L95.5603 104.294C95.816 104.348 96.1053 104.403 96.3168 104.403V102.403ZM95.9723 102.337C95.5949 102.257 95.1342 102.227 94.6214 102.227V104.227C95.0774 104.227 95.38 104.256 95.5603 104.294L95.9723 102.337ZM94.6214 102.227C94.086 102.227 93.5698 102.307 93.1047 102.506L93.8925 104.345C94.0439 104.28 94.2762 104.227 94.6214 104.227V102.227ZM93.0882 102.514C92.4892 102.783 92.1062 103.303 91.8595 103.853L93.6845 104.671C93.7498 104.525 93.8093 104.438 93.8518 104.389C93.8724 104.366 93.8877 104.352 93.8967 104.345C93.9012 104.342 93.9044 104.34 93.9062 104.339C93.908 104.338 93.9089 104.337 93.9089 104.337L93.0882 102.514ZM91.848 103.88C91.5974 104.485 91.5078 105.257 91.5078 106.112H93.5078C93.5078 105.352 93.5944 104.89 93.696 104.644L91.848 103.88ZM91.5078 106.112V109.524H93.5078V106.112H91.5078ZM92.5078 110.524H95.9205V108.524H92.5078V110.524ZM95.9205 110.524C95.9487 110.524 95.9119 110.529 95.8444 110.497C95.7676 110.46 95.7029 110.399 95.6633 110.334L97.3666 109.286C97.0211 108.725 96.4487 108.524 95.9205 108.524V110.524ZM95.7149 110.41C95.6712 110.352 95.6752 110.326 95.6879 110.382C95.7001 110.436 95.7131 110.535 95.7131 110.691H97.7131C97.7131 110.226 97.6486 109.655 97.3149 109.21L95.7149 110.41ZM95.7131 110.691V111.175H97.7131V110.691H95.7131ZM95.7131 111.175C95.7131 111.331 95.7002 111.434 95.6868 111.495C95.673 111.558 95.6647 111.549 95.6927 111.509L97.3371 112.647C97.6443 112.204 97.7131 111.652 97.7131 111.175H95.7131ZM95.6829 111.523C95.7319 111.45 95.8025 111.393 95.8721 111.362C95.9319 111.336 95.9584 111.342 95.9205 111.342V113.342C96.4156 113.342 96.9869 113.173 97.347 112.633L95.6829 111.523ZM95.9205 111.342H92.5078V113.342H95.9205V111.342ZM91.5078 112.342V129.207H93.5078V112.342H91.5078ZM91.5078 129.207C91.5078 129.209 91.5086 129.162 91.5442 129.1C91.5802 129.036 91.6221 129.009 91.6265 129.006L92.6405 130.73C93.2008 130.4 93.5078 129.849 93.5078 129.207H91.5078ZM91.6656 128.984C91.667 128.983 91.6549 128.99 91.6238 129C91.593 129.009 91.5484 129.02 91.4872 129.031C91.363 129.052 91.1923 129.066 90.9666 129.066V131.066C91.5392 131.066 92.1303 131.001 92.6014 130.752L91.6656 128.984ZM90.9666 129.066H90.7905V131.066H90.9666V129.066ZM101.513 119.762L102.149 120.534L102.154 120.53L101.513 119.762ZM106.07 117.759L106.232 118.745L106.239 118.744L106.07 117.759ZM112.631 117.23L112.649 118.23L113.631 118.213V117.23H112.631ZM111.619 113.025L110.945 113.764L110.954 113.772L110.962 113.779L111.619 113.025ZM105.278 112.54L105.57 113.497L105.58 113.494L105.278 112.54ZM102.834 113.509L102.387 112.615L102.834 113.509ZM101.645 113.377L100.856 113.991L100.875 114.016L100.895 114.039L101.645 113.377ZM101.094 112.496L100.184 112.91L100.192 112.927L100.2 112.944L101.094 112.496ZM101.909 110.691L101.419 109.819L101.411 109.824L101.909 110.691ZM113.908 110.911L113.287 111.695L113.908 110.911ZM116.154 127.908L115.172 128.097L115.174 128.108L115.177 128.119L116.154 127.908ZM115.648 129.846L115.911 130.811L115.92 130.808L115.93 130.805L115.648 129.846ZM113.49 129.45L112.564 129.827L112.57 129.841L112.576 129.856L113.49 129.45ZM113.006 127.732L112.025 127.928L112.027 127.936L112.028 127.943L113.006 127.732ZM112.918 127.292L113.898 127.096L113.508 125.144L112.175 126.622L112.918 127.292ZM110.055 129.428L109.623 128.526L109.618 128.528L110.055 129.428ZM109.813 126.675L109.355 125.787L109.813 126.675ZM112.631 124.672L113.298 125.417L113.631 125.119V124.672H112.631ZM112.631 120.048H113.631V119.041L112.624 119.048L112.631 120.048ZM104.573 121.413L105.103 122.261L105.113 122.255L104.573 121.413ZM104.001 126.565L103.294 127.272L103.303 127.282L103.312 127.291L104.001 126.565ZM109.131 102.347L108.267 101.843L108.264 101.847L109.131 102.347ZM110.011 101.576L109.634 100.65L109.622 100.655L110.011 101.576ZM112.389 103.359L111.641 102.696L111.635 102.702L111.63 102.709L112.389 103.359ZM110.694 105.319L111.446 105.978L111.448 105.975L110.694 105.319ZM109.747 106.398L110.478 107.08L110.489 107.069L110.499 107.057L109.747 106.398ZM106.335 129.22C104.504 129.22 103.128 128.771 102.114 127.963L100.867 129.527C102.32 130.686 104.173 131.22 106.335 131.22V129.22ZM102.114 127.963C101.173 127.213 100.641 126.074 100.641 124.364H98.6413C98.6413 126.529 99.3422 128.31 100.867 129.527L102.114 127.963ZM100.641 124.364C100.641 122.537 101.19 121.323 102.148 120.534L100.877 118.99C99.3402 120.256 98.6413 122.11 98.6413 124.364H100.641ZM102.154 120.53C103.249 119.615 104.597 119.013 106.232 118.745L105.909 116.772C103.962 117.091 102.272 117.825 100.872 118.995L102.154 120.53ZM106.239 118.744C107.979 118.447 110.112 118.273 112.649 118.23L112.614 116.23C110.013 116.275 107.773 116.453 105.902 116.773L106.239 118.744ZM113.631 117.23V115.381H111.631V117.23H113.631ZM113.631 115.381C113.631 114.14 113.192 113.067 112.275 112.27L110.962 113.779C111.396 114.156 111.631 114.654 111.631 115.381H113.631ZM112.292 112.286C111.355 111.432 109.951 111.122 108.338 111.122V113.122C109.778 113.122 110.561 113.414 110.945 113.764L112.292 112.286ZM108.338 111.122C107.101 111.122 105.975 111.271 104.976 111.587L105.58 113.494C106.341 113.253 107.256 113.122 108.338 113.122V111.122ZM104.986 111.584C104.07 111.864 103.203 112.207 102.387 112.615L103.281 114.404C103.991 114.048 104.754 113.746 105.57 113.497L104.986 111.584ZM102.387 112.615C102.235 112.691 102.13 112.738 102.066 112.765C102.033 112.778 102.024 112.78 102.033 112.778C102.038 112.776 102.056 112.771 102.083 112.766C102.107 112.761 102.164 112.751 102.239 112.751V114.751C102.406 114.751 102.545 114.712 102.603 114.695C102.679 114.672 102.754 114.644 102.82 114.617C102.954 114.563 103.11 114.489 103.281 114.404L102.387 112.615ZM102.239 112.751C102.392 112.751 102.482 112.806 102.491 112.812C102.498 112.815 102.491 112.812 102.473 112.796C102.454 112.779 102.428 112.754 102.395 112.716L100.895 114.039C101.152 114.329 101.606 114.751 102.239 114.751V112.751ZM102.434 112.763C102.272 112.555 102.123 112.318 101.989 112.049L100.2 112.944C100.389 113.321 100.607 113.671 100.856 113.991L102.434 112.763ZM102.005 112.083C101.942 111.944 101.904 111.845 101.884 111.78C101.874 111.748 101.871 111.732 101.87 111.73C101.869 111.726 101.874 111.749 101.874 111.792H99.8743C99.8743 112.178 100.039 112.591 100.184 112.91L102.005 112.083ZM101.874 111.792C101.874 111.978 101.779 112.036 101.862 111.948C101.939 111.866 102.104 111.732 102.407 111.558L101.411 109.824C101.024 110.046 100.672 110.294 100.404 110.579C100.142 110.858 99.8743 111.268 99.8743 111.792H101.874ZM102.399 111.563C102.994 111.228 103.814 110.925 104.889 110.674L104.434 108.727C103.248 109.004 102.233 109.362 101.419 109.819L102.399 111.563ZM104.889 110.674C105.94 110.428 107.045 110.304 108.206 110.304V108.304C106.901 108.304 105.643 108.444 104.434 108.727L104.889 110.674ZM108.206 110.304C110.525 110.304 112.174 110.812 113.287 111.695L114.53 110.128C112.942 108.868 110.79 108.304 108.206 108.304V110.304ZM113.287 111.695C114.366 112.551 114.934 113.749 114.934 115.425H116.934C116.934 113.225 116.151 111.414 114.53 110.128L113.287 111.695ZM114.934 115.425V124.21H116.934V115.425H114.934ZM114.934 124.21C114.934 125.919 115.006 127.234 115.172 128.097L117.136 127.72C117.009 127.057 116.934 125.905 116.934 124.21H114.934ZM115.177 128.119C115.257 128.492 115.316 128.774 115.355 128.971C115.374 129.07 115.387 129.141 115.395 129.187C115.399 129.211 115.4 129.222 115.401 129.225C115.402 129.239 115.396 129.2 115.396 129.141H117.396C117.396 129.024 117.374 128.899 117.368 128.859C117.355 128.784 117.338 128.692 117.317 128.585C117.275 128.371 117.213 128.074 117.132 127.698L115.177 128.119ZM115.396 129.141C115.396 129.089 115.407 129.025 115.437 128.959C115.466 128.894 115.502 128.852 115.524 128.831C115.544 128.813 115.549 128.814 115.521 128.828C115.494 128.842 115.444 128.863 115.366 128.887L115.93 130.805C116.259 130.708 116.611 130.554 116.895 130.288C117.206 129.994 117.396 129.597 117.396 129.141H115.396ZM115.385 128.881C114.971 128.994 114.605 129.044 114.283 129.044V131.044C114.811 131.044 115.356 130.962 115.911 130.811L115.385 128.881ZM114.283 129.044C114.289 129.044 114.311 129.045 114.341 129.055C114.372 129.065 114.399 129.08 114.42 129.095C114.461 129.126 114.444 129.133 114.404 129.043L112.576 129.856C112.713 130.162 112.916 130.467 113.22 130.695C113.537 130.933 113.906 131.044 114.283 131.044V129.044ZM114.416 129.072C114.287 128.756 114.14 128.25 113.983 127.521L112.028 127.943C112.194 128.712 112.37 129.35 112.564 129.827L114.416 129.072ZM113.986 127.536L113.898 127.096L111.937 127.488L112.025 127.928L113.986 127.536ZM112.175 126.622C111.456 127.42 110.608 128.053 109.623 128.526L110.488 130.329C111.705 129.745 112.765 128.955 113.66 127.962L112.175 126.622ZM109.618 128.528C108.688 128.981 107.601 129.22 106.335 129.22V131.22C107.857 131.22 109.251 130.931 110.493 130.327L109.618 128.528ZM106.511 128.38C107.921 128.38 109.188 128.124 110.272 127.564L109.355 125.787C108.619 126.167 107.683 126.38 106.511 126.38V128.38ZM110.272 127.564C111.274 127.047 112.282 126.325 113.298 125.417L111.965 123.926C111.043 124.75 110.173 125.365 109.355 125.787L110.272 127.564ZM113.631 124.672V120.048H111.631V124.672H113.631ZM112.624 119.048C110.667 119.063 109.035 119.145 107.737 119.297L107.971 121.284C109.168 121.143 110.721 121.063 112.639 121.048L112.624 119.048ZM107.737 119.297C106.358 119.46 105.116 119.878 104.034 120.571L105.113 122.255C105.909 121.745 106.854 121.415 107.971 121.284L107.737 119.297ZM104.043 120.565C102.77 121.361 102.164 122.625 102.164 124.165H104.164C104.164 123.211 104.497 122.64 105.103 122.261L104.043 120.565ZM102.164 124.165C102.164 125.385 102.494 126.473 103.294 127.272L104.708 125.858C104.392 125.542 104.164 125.031 104.164 124.165H102.164ZM103.312 127.291C104.133 128.07 105.256 128.38 106.511 128.38V126.38C105.564 126.38 105.013 126.147 104.689 125.84L103.312 127.291ZM107.744 106.08C107.625 106.08 107.541 106.074 107.486 106.066C107.426 106.058 107.422 106.051 107.45 106.063C107.476 106.074 107.578 106.121 107.677 106.243C107.788 106.381 107.841 106.55 107.841 106.706H105.841C105.841 106.987 105.932 107.264 106.118 107.496C106.291 107.712 106.506 107.837 106.684 107.91C107.019 108.049 107.404 108.08 107.744 108.08V106.08ZM107.841 106.706C107.841 106.777 107.829 106.812 107.834 106.793C107.838 106.779 107.848 106.744 107.871 106.685C107.918 106.565 107.998 106.393 108.121 106.161L106.353 105.225C106.212 105.492 106.094 105.738 106.009 105.956C105.935 106.145 105.841 106.42 105.841 106.706H107.841ZM108.121 106.161C108.375 105.681 108.996 104.582 109.997 102.846L108.264 101.847C107.269 103.575 106.628 104.707 106.353 105.225L108.121 106.161ZM109.994 102.85C110.089 102.688 110.215 102.576 110.401 102.497L109.622 100.655C109.045 100.899 108.583 101.301 108.267 101.843L109.994 102.85ZM110.389 102.502C110.622 102.407 110.995 102.334 111.553 102.334V100.334C110.848 100.334 110.193 100.422 109.634 100.65L110.389 102.502ZM111.553 102.334C112.204 102.334 112.575 102.373 112.741 102.414L113.226 100.474C112.805 100.368 112.222 100.334 111.553 100.334V102.334ZM112.741 102.414C112.797 102.428 112.724 102.422 112.625 102.329C112.571 102.277 112.516 102.205 112.476 102.112C112.437 102.02 112.424 101.932 112.424 101.862H114.424C114.424 101.49 114.278 101.14 114.003 100.879C113.757 100.645 113.464 100.533 113.226 100.474L112.741 102.414ZM112.424 101.862C112.424 101.781 112.442 101.73 112.445 101.721C112.449 101.712 112.444 101.727 112.416 101.77L114.08 102.879C114.247 102.629 114.424 102.278 114.424 101.862H112.424ZM112.416 101.77C112.343 101.878 112.106 102.171 111.641 102.696L113.138 104.022C113.583 103.52 113.917 103.123 114.08 102.879L112.416 101.77ZM111.63 102.709C111.192 103.22 110.629 103.871 109.94 104.662L111.448 105.975C112.139 105.182 112.706 104.527 113.148 104.01L111.63 102.709ZM109.942 104.659L108.996 105.738L110.499 107.057L111.446 105.978L109.942 104.659ZM109.016 105.715C108.948 105.788 108.825 105.879 108.594 105.955L109.227 107.853C109.701 107.695 110.135 107.448 110.478 107.08L109.016 105.715ZM108.594 105.955C108.358 106.034 108.077 106.08 107.744 106.08V108.08C108.261 108.08 108.759 108.009 109.227 107.853L108.594 105.955ZM123.486 127.732L122.76 128.42L122.766 128.426L123.486 127.732ZM133.239 109.568L133.049 110.55L133.057 110.551L133.065 110.553L133.239 109.568ZM135.441 110.229L134.994 111.123L135.441 110.229ZM136.058 111.924L135.14 111.525L135.133 111.542L135.126 111.56L136.058 111.924ZM135.551 112.827L134.762 112.213L134.757 112.219L135.551 112.827ZM134.825 113.157L134.377 114.051L134.441 114.083L134.508 114.106L134.825 113.157ZM134.582 113.047L134.16 113.953L134.185 113.965L134.211 113.975L134.582 113.047ZM126.128 113.906L126.895 114.548L126.898 114.543L126.128 113.906ZM125.247 124.077L124.302 124.405L124.303 124.408L125.247 124.077ZM127.163 126.587L126.638 127.439L126.644 127.442L127.163 126.587ZM135.133 126.389L134.916 125.413L134.789 125.441L134.674 125.501L135.133 126.389ZM135.419 126.301L135.866 127.196L135.901 127.178L135.934 127.159L135.419 126.301ZM136.652 127.468L135.742 127.882L135.749 127.899L135.758 127.915L136.652 127.468ZM133.79 129.934L133.989 130.914L134 130.912L133.79 129.934ZM130.751 129.22C127.666 129.22 125.551 128.433 124.206 127.038L122.766 128.426C124.62 130.349 127.349 131.22 130.751 131.22V129.22ZM124.212 127.044C122.883 125.642 122.108 123.265 122.108 119.674H120.108C120.108 123.481 120.918 126.476 122.76 128.42L124.212 127.044ZM122.108 119.674C122.108 116.055 122.97 113.738 124.438 112.428L123.106 110.936C121.021 112.796 120.108 115.807 120.108 119.674H122.108ZM124.438 112.428C126.01 111.025 127.974 110.304 130.399 110.304V108.304C127.541 108.304 125.086 109.169 123.106 110.936L124.438 112.428ZM130.399 110.304C131.323 110.304 132.206 110.387 133.049 110.55L133.429 108.586C132.453 108.397 131.442 108.304 130.399 108.304V110.304ZM133.065 110.553C133.921 110.705 134.553 110.903 134.994 111.123L135.888 109.334C135.214 108.997 134.378 108.755 133.414 108.584L133.065 110.553ZM134.994 111.123C135.101 111.177 135.183 111.225 135.242 111.266C135.303 111.307 135.333 111.335 135.344 111.347C135.354 111.358 135.338 111.344 135.318 111.301C135.297 111.255 135.278 111.188 135.278 111.109H137.278C137.278 110.627 137.052 110.242 136.794 109.969C136.543 109.706 136.221 109.501 135.888 109.334L134.994 111.123ZM135.278 111.109C135.278 111.098 135.279 111.127 135.257 111.206C135.237 111.283 135.2 111.388 135.14 111.525L136.975 112.323C137.14 111.943 137.278 111.521 137.278 111.109H135.278ZM135.126 111.56C135.026 111.815 134.904 112.031 134.762 112.213L136.34 113.441C136.61 113.094 136.825 112.708 136.989 112.288L135.126 111.56ZM134.757 112.219C134.697 112.297 134.676 112.307 134.698 112.291C134.723 112.274 134.837 112.201 135.023 112.201V114.201C135.692 114.201 136.13 113.716 136.345 113.434L134.757 112.219ZM135.023 112.201C135.066 112.201 135.098 112.204 135.118 112.207C135.138 112.21 135.151 112.213 135.157 112.214C135.167 112.216 135.163 112.216 135.141 112.208L134.508 114.106C134.611 114.14 134.807 114.201 135.023 114.201V112.201ZM135.272 112.263C135.165 112.209 135.058 112.16 134.954 112.118L134.211 113.975C134.253 113.992 134.308 114.017 134.377 114.051L135.272 112.263ZM135.005 112.141C133.546 111.46 131.977 111.122 130.311 111.122V113.122C131.699 113.122 132.977 113.401 134.16 113.953L135.005 112.141ZM130.311 111.122C128.264 111.122 126.564 111.809 125.357 113.268L126.898 114.543C127.659 113.624 128.747 113.122 130.311 113.122V111.122ZM125.361 113.263C124.152 114.707 123.653 116.89 123.653 119.586H125.653C125.653 117.057 126.137 115.453 126.894 114.548L125.361 113.263ZM123.653 119.586C123.653 121.494 123.856 123.114 124.302 124.405L126.192 123.75C125.846 122.751 125.653 121.376 125.653 119.586H123.653ZM124.303 124.408C124.763 125.719 125.532 126.757 126.638 127.439L127.688 125.736C127.032 125.332 126.524 124.696 126.191 123.747L124.303 124.408ZM126.644 127.442C127.748 128.112 129.136 128.402 130.729 128.402V126.402C129.358 126.402 128.368 126.149 127.681 125.732L126.644 127.442ZM130.729 128.402C132.501 128.402 134.129 128.034 135.592 127.278L134.674 125.501C133.524 126.095 132.216 126.402 130.729 126.402V128.402ZM135.35 127.365C135.496 127.333 135.692 127.283 135.866 127.196L134.972 125.407C134.993 125.396 135.008 125.39 135.012 125.389C135.017 125.387 135.017 125.387 135.009 125.389C134.994 125.394 134.964 125.402 134.916 125.413L135.35 127.365ZM135.934 127.159C135.95 127.149 135.938 127.157 135.907 127.171C135.89 127.178 135.857 127.191 135.81 127.204C135.768 127.216 135.684 127.235 135.573 127.235V125.235C135.35 125.235 135.177 125.308 135.119 125.332C135.036 125.368 134.962 125.409 134.905 125.444L135.934 127.159ZM135.573 127.235C135.391 127.235 135.283 127.165 135.27 127.156C135.256 127.146 135.284 127.163 135.352 127.245L136.896 125.974C136.67 125.7 136.225 125.235 135.573 125.235V127.235ZM135.352 127.245C135.496 127.421 135.628 127.631 135.742 127.882L137.562 127.054C137.383 126.659 137.162 126.297 136.896 125.974L135.352 127.245ZM135.758 127.915C135.822 128.044 135.86 128.139 135.88 128.203C135.901 128.271 135.894 128.277 135.894 128.239H137.894C137.894 127.808 137.726 127.38 137.546 127.021L135.758 127.915ZM135.894 128.239C135.894 128.069 135.975 127.995 135.943 128.03C135.928 128.047 135.894 128.08 135.83 128.127C135.767 128.173 135.683 128.228 135.574 128.288L136.541 130.039C136.871 129.856 137.185 129.639 137.427 129.372C137.674 129.099 137.894 128.716 137.894 128.239H135.894ZM135.574 128.288C135.134 128.531 134.483 128.762 133.579 128.956L134 130.912C135.005 130.695 135.865 130.412 136.541 130.039L135.574 128.288ZM133.591 128.954C132.725 129.13 131.779 129.22 130.751 129.22V131.22C131.896 131.22 132.976 131.12 133.989 130.914L133.591 128.954ZM143.037 103.592C142.819 103.592 142.654 103.577 142.533 103.555C142.41 103.532 142.357 103.507 142.346 103.501C142.341 103.498 142.385 103.523 142.426 103.591C142.469 103.661 142.474 103.72 142.474 103.734H140.474C140.474 104.034 140.544 104.343 140.717 104.628C140.888 104.911 141.128 105.114 141.383 105.254C141.864 105.518 142.457 105.592 143.037 105.592V103.592ZM142.474 103.734V101.422H140.474V103.734H142.474ZM142.474 101.422C142.474 101.436 142.469 101.495 142.426 101.565C142.385 101.633 142.341 101.657 142.346 101.654C142.357 101.649 142.41 101.623 142.533 101.601C142.654 101.578 142.819 101.563 143.037 101.563V99.5632C142.457 99.5632 141.864 99.6372 141.383 99.9014C141.128 100.042 140.888 100.245 140.717 100.527C140.544 100.812 140.474 101.122 140.474 101.422H142.474ZM143.037 101.563H143.499V99.5632H143.037V101.563ZM143.499 101.563C143.721 101.563 143.89 101.578 144.015 101.601C144.142 101.624 144.199 101.65 144.212 101.657C144.22 101.661 144.176 101.639 144.134 101.57C144.09 101.5 144.085 101.438 144.085 101.422H146.085C146.085 101.119 146.013 100.808 145.837 100.522C145.663 100.239 145.421 100.038 145.164 99.8986C144.681 99.637 144.085 99.5632 143.499 99.5632V101.563ZM144.085 101.422V103.734H146.085V101.422H144.085ZM144.085 103.734C144.085 103.717 144.09 103.656 144.134 103.585C144.176 103.517 144.22 103.494 144.212 103.498C144.199 103.505 144.142 103.532 144.015 103.555C143.89 103.577 143.721 103.592 143.499 103.592V105.592C144.085 105.592 144.681 105.519 145.164 105.257C145.421 105.118 145.663 104.916 145.837 104.633C146.013 104.348 146.085 104.036 146.085 103.734H144.085ZM143.499 103.592H143.037V105.592H143.499V103.592ZM143.191 129.066C142.973 129.066 142.808 129.051 142.687 129.029C142.564 129.006 142.511 128.981 142.5 128.975C142.495 128.972 142.539 128.996 142.58 129.064C142.623 129.134 142.628 129.194 142.628 129.207H140.628C140.628 129.507 140.698 129.817 140.871 130.102C141.042 130.385 141.282 130.587 141.537 130.728C142.018 130.992 142.611 131.066 143.191 131.066V129.066ZM142.628 129.207V110.317H140.628V129.207H142.628ZM142.628 110.317C142.628 110.33 142.623 110.39 142.58 110.46C142.539 110.528 142.495 110.552 142.5 110.549C142.511 110.543 142.564 110.518 142.687 110.495C142.808 110.473 142.973 110.458 143.191 110.458V108.458C142.611 108.458 142.018 108.532 141.537 108.796C141.282 108.937 141.042 109.14 140.871 109.422C140.698 109.707 140.628 110.017 140.628 110.317H142.628ZM143.191 110.458H143.345V108.458H143.191V110.458ZM143.345 110.458C143.567 110.458 143.736 110.473 143.861 110.496C143.988 110.519 144.045 110.545 144.058 110.552C144.066 110.556 144.022 110.533 143.98 110.465C143.936 110.394 143.93 110.333 143.93 110.317H145.93C145.93 110.014 145.859 109.702 145.683 109.417C145.509 109.134 145.267 108.932 145.01 108.793C144.527 108.532 143.931 108.458 143.345 108.458V110.458ZM143.93 110.317V129.207H145.93V110.317H143.93ZM143.93 129.207C143.93 129.191 143.936 129.13 143.98 129.059C144.022 128.991 144.066 128.968 144.058 128.972C144.045 128.979 143.988 129.005 143.861 129.028C143.736 129.051 143.567 129.066 143.345 129.066V131.066C143.931 131.066 144.527 130.992 145.01 130.731C145.267 130.592 145.509 130.39 145.683 130.107C145.859 129.822 145.93 129.51 145.93 129.207H143.93ZM143.345 129.066H143.191V131.066H143.345V129.066ZM153.209 129.031L152.598 129.823L153.209 129.031ZM155.521 126.763L154.776 127.431L155.521 126.763ZM159.33 127.93L158.375 128.229L158.379 128.242L158.384 128.255L159.33 127.93ZM156.71 129.22C155.623 129.22 154.671 128.896 153.82 128.239L152.598 129.823C153.802 130.752 155.184 131.22 156.71 131.22V129.22ZM153.82 128.239C153.148 127.722 152.668 126.7 152.668 124.826H150.668C150.668 126.973 151.214 128.756 152.598 129.823L153.82 128.239ZM152.668 124.826V101.422H150.668V124.826H152.668ZM152.668 101.422C152.668 101.436 152.663 101.495 152.62 101.565C152.579 101.633 152.535 101.657 152.54 101.654C152.55 101.649 152.604 101.623 152.727 101.601C152.848 101.578 153.013 101.563 153.231 101.563V99.5632C152.651 99.5632 152.058 99.6372 151.577 99.9014C151.321 100.042 151.082 100.245 150.91 100.527C150.738 100.812 150.668 101.122 150.668 101.422H152.668ZM153.231 101.563H153.407V99.5632H153.231V101.563ZM153.407 101.563C153.62 101.563 153.781 101.578 153.899 101.6C154.018 101.622 154.068 101.647 154.076 101.651C154.078 101.653 154.034 101.627 153.994 101.56C153.952 101.49 153.948 101.433 153.948 101.422H155.948C155.948 101.125 155.88 100.817 155.71 100.533C155.541 100.25 155.304 100.046 155.05 99.9043C154.571 99.6375 153.981 99.5632 153.407 99.5632V101.563ZM153.948 101.422V124.518H155.948V101.422H153.948ZM153.948 124.518C153.948 125.646 154.136 126.718 154.776 127.431L156.265 126.096C156.141 125.958 155.948 125.533 155.948 124.518H153.948ZM154.776 127.431C155.373 128.097 156.173 128.402 157.062 128.402V126.402C156.659 126.402 156.431 126.281 156.265 126.096L154.776 127.431ZM157.062 128.402C157.575 128.402 158.035 128.372 158.413 128.292L158.001 126.335C157.82 126.373 157.518 126.402 157.062 126.402V128.402ZM158.413 128.292C158.544 128.265 158.642 128.246 158.711 128.235C158.746 128.23 158.768 128.227 158.781 128.226C158.796 128.224 158.785 128.226 158.757 128.226V126.226C158.546 126.226 158.256 126.282 158.001 126.335L158.413 128.292ZM158.757 128.226C158.641 128.226 158.531 128.195 158.442 128.145C158.359 128.1 158.314 128.05 158.3 128.033C158.286 128.016 158.292 128.018 158.309 128.054C158.326 128.09 158.349 128.146 158.375 128.229L160.284 127.632C160.194 127.343 160.062 127.03 159.852 126.771C159.626 126.493 159.259 126.226 158.757 126.226V128.226ZM158.384 128.255C158.533 128.689 158.572 128.939 158.572 129.053H160.572C160.572 128.609 160.449 128.111 160.275 127.605L158.384 128.255ZM158.572 129.053C158.572 129.025 158.587 128.97 158.619 128.931C158.637 128.909 158.617 128.946 158.479 129.002C158.184 129.123 157.625 129.22 156.71 129.22V131.22C157.702 131.22 158.574 131.123 159.234 130.854C159.573 130.716 159.91 130.511 160.167 130.197C160.437 129.866 160.572 129.47 160.572 129.053H158.572Z" fill="white"/>
<rect x="31.5" y="50.5" width="55" height="55" rx="7.5" stroke="white"/>
<path d="M37.1431 93C36.7183 93 36.4073 92.9014 36.2101 92.7042C36.0128 92.5069 35.9142 92.2035 35.9142 91.7939V65.8963C35.9142 65.4715 36.0128 65.1681 36.2101 64.986C36.4073 64.7888 36.7183 64.6902 37.1431 64.6902H44.3799C46.3522 64.6902 48.0134 64.986 49.3637 65.5777C50.7139 66.1694 51.7304 67.0038 52.4131 68.081C53.0958 69.1581 53.4372 70.4098 53.4372 71.8359C53.4372 72.7158 53.2324 73.5958 52.8228 74.4757C52.4131 75.3405 51.867 76.0915 51.1842 76.7287C50.5015 77.3507 49.7733 77.7679 48.9996 77.9803V78.1396C48.9996 78.0334 49.523 78.2382 50.5698 78.754C51.6166 79.2547 52.5573 80.0057 53.3917 81.007C54.2413 81.9931 54.6661 83.2751 54.6661 84.853C54.6661 90.2843 51.1463 93 44.1068 93H37.1431ZM44.1978 76.888C45.2598 76.888 46.2156 76.6831 47.0652 76.2735C47.9148 75.8487 48.5748 75.2798 49.0451 74.5667C49.5306 73.8385 49.7733 73.0344 49.7733 72.1545C49.7733 70.6373 49.3182 69.5298 48.4079 68.8319C47.4976 68.1189 46.0411 67.7624 44.0385 67.7624H39.4871V76.888H44.1978ZM45.4039 89.9278C47.179 89.9278 48.552 89.4651 49.523 88.5396C50.4939 87.599 50.9794 86.317 50.9794 84.6937C50.9794 83.1917 50.4484 82.0311 49.3864 81.2118C48.3244 80.3774 46.7618 79.9602 44.6985 79.9602H39.4871V89.9278H45.4039ZM70.3912 93.2276C68.0397 93.2276 66.0371 92.8635 64.3834 92.1352C62.7297 91.3918 61.478 90.3222 60.6284 88.9265C59.7788 87.5307 59.354 85.8619 59.354 83.9199V65.4867C59.354 64.8798 59.8926 64.5764 60.9698 64.5764H61.2884C62.3656 64.5764 62.9042 64.8798 62.9042 65.4867V84.0565C62.9042 85.2398 63.2303 86.2942 63.8827 87.2197C64.5351 88.1451 65.4302 88.8658 66.5681 89.3816C67.7059 89.8974 68.9803 90.1554 70.3912 90.1554C71.8174 90.1554 73.0993 89.8974 74.2372 89.3816C75.3751 88.8506 76.2626 88.1224 76.8998 87.1969C77.5522 86.2715 77.8783 85.2247 77.8783 84.0565V65.4867C77.8783 64.8798 78.4169 64.5764 79.4941 64.5764H79.8355C80.8974 64.5764 81.4284 64.8798 81.4284 65.4867V83.9199C81.4284 85.8619 81.0036 87.5307 80.1541 88.9265C79.3045 90.3222 78.0528 91.3918 76.3991 92.1352C74.7454 92.8635 72.7428 93.2276 70.3912 93.2276Z" fill="white"/>
<path d="M96.8766 93.2276C95.3898 93.2276 94.0016 93.0683 92.712 92.7497C91.4376 92.4159 90.4136 92.0214 89.6398 91.5663C88.8813 91.096 88.502 90.6712 88.502 90.2919C88.502 90.0795 88.5854 89.7988 88.7523 89.4499C88.9344 89.1009 89.1392 88.7899 89.3667 88.5168C89.5943 88.2438 89.7764 88.1072 89.9129 88.1072C90.0343 88.1072 90.2998 88.2286 90.7094 88.4713C91.65 88.9568 92.5831 89.3589 93.5085 89.6775C94.434 89.9961 95.5567 90.1554 96.8766 90.1554C97.9082 90.1554 98.8261 89.9581 99.6302 89.5637C100.434 89.1692 101.056 88.6155 101.496 87.9024C101.951 87.1742 102.179 86.3398 102.179 85.3991C102.179 84.3978 101.906 83.571 101.36 82.9186C100.829 82.2511 100.176 81.7276 99.4026 81.3484C98.6441 80.9539 97.5365 80.4684 96.0801 79.8919C94.5023 79.285 93.2506 78.7237 92.3252 78.2079C91.4149 77.6769 90.6336 76.9107 89.9812 75.9094C89.344 74.9081 89.0254 73.5806 89.0254 71.9269C89.0254 70.4856 89.3971 69.1961 90.1405 68.0582C90.8839 66.9052 91.9383 66.0101 93.3037 65.3729C94.6691 64.7357 96.2394 64.4171 98.0144 64.4171C98.8185 64.4171 99.7364 64.5309 100.768 64.7584C101.8 64.9708 102.68 65.2667 103.408 65.646C104.151 66.0252 104.523 66.4424 104.523 66.8976C104.523 67.0948 104.44 67.3679 104.273 67.7168C104.121 68.0506 103.939 68.354 103.726 68.6271C103.514 68.9002 103.347 69.0368 103.226 69.0368C103.089 69.0368 102.816 68.923 102.407 68.6954C101.724 68.3313 101.049 68.043 100.381 67.8306C99.7136 67.6031 98.902 67.4893 97.9462 67.4893C96.3835 67.4893 95.1167 67.8913 94.1457 68.6954C93.1899 69.4995 92.712 70.6222 92.712 72.0635C92.712 72.9282 92.9244 73.6413 93.3492 74.2026C93.774 74.764 94.3126 75.2115 94.965 75.5453C95.6174 75.8791 96.5276 76.2659 97.6958 76.7059C97.7717 76.7211 97.9462 76.7818 98.2193 76.888C99.8274 77.51 101.14 78.1168 102.156 78.7085C103.188 79.285 104.06 80.1195 104.773 81.2118C105.502 82.3042 105.866 83.6999 105.866 85.3991C105.866 86.9921 105.494 88.3803 104.751 89.5637C104.022 90.747 102.975 91.6573 101.61 92.2945C100.26 92.9166 98.682 93.2276 96.8766 93.2276ZM122.592 93.2276C118.162 93.2276 114.885 92.0594 112.761 89.723C110.637 87.3866 109.575 83.753 109.575 78.8223C109.575 69.2188 113.937 64.4171 122.66 64.4171C123.935 64.4171 125.171 64.5536 126.37 64.8267C127.568 65.0846 128.539 65.4108 129.283 65.8052C130.026 66.1997 130.398 66.579 130.398 66.9431C130.398 67.1707 130.314 67.4741 130.147 67.8534C129.996 68.2327 129.814 68.5664 129.601 68.8547C129.389 69.143 129.199 69.2871 129.032 69.2871C128.957 69.2871 128.744 69.1885 128.395 68.9912C127.606 68.5664 126.779 68.2099 125.915 67.9217C125.05 67.6334 123.995 67.4893 122.751 67.4893C119.49 67.4893 117.085 68.3996 115.537 70.2201C114.005 72.0255 113.239 74.9081 113.239 78.8678C113.239 82.7365 113.998 85.5888 115.515 87.4245C117.047 89.2451 119.406 90.1554 122.592 90.1554C123.927 90.1554 125.073 89.9961 126.028 89.6775C126.984 89.3589 127.902 88.9644 128.782 88.4941C129.207 88.2665 129.465 88.1527 129.556 88.1527C129.723 88.1527 129.912 88.2969 130.125 88.5851C130.352 88.8734 130.55 89.1996 130.716 89.5637C130.883 89.9126 130.967 90.1629 130.967 90.3147C130.967 90.6939 130.58 91.1187 129.806 91.5891C129.048 92.0442 128.023 92.4311 126.734 92.7497C125.46 93.0683 124.079 93.2276 122.592 93.2276ZM134.562 93.0683C133.956 93.0683 133.516 93.0152 133.242 92.909C132.969 92.7876 132.833 92.6131 132.833 92.3856C132.833 92.2794 132.871 92.0973 132.947 91.8394L142.527 65.2363C142.679 64.7964 143.218 64.5764 144.143 64.5764H145.326C146.252 64.5764 146.791 64.7964 146.942 65.2363L156.523 91.8621C156.599 92.029 156.637 92.2035 156.637 92.3856C156.637 92.8407 156.068 93.0683 154.93 93.0683H154.589C153.648 93.0683 153.102 92.8559 152.95 92.4311L150.583 85.786H138.704L136.383 92.4311C136.246 92.8559 135.708 93.0683 134.767 93.0683H134.562ZM149.491 82.7138L145.258 70.6753C145.137 70.3415 145.038 69.9622 144.962 69.5374C144.887 69.1126 144.818 68.703 144.758 68.3085H144.667C144.484 69.325 144.28 70.1139 144.052 70.6753L139.819 82.7138H149.491Z" fill="white"/>
</svg>
